<svg width="429" height="81" viewBox="0 0 429 81" fill="none" xmlns="http://www.w3.org/2000/svg" xmlns:xlink="http://www.w3.org/1999/xlink">
<symbol id="logo-symbol-wordmark"><defs id="SvgjsDefs2510"></defs><g id="SvgjsG2511" featurekey="v37d4h-0" transform="matrix(0.9000814545149298,0,0,0.9000814545149298,-3.3303020684128932,-10.039610904302236)" fill="#6a9c78"><defs xmlns="http://www.w3.org/2000/svg"></defs><title xmlns="http://www.w3.org/2000/svg">Sketches</title><g xmlns="http://www.w3.org/2000/svg" data-name="Shape 21"><path class="cls-1" d="M31.12,48.79c5.68-.48,10.35-4.52,14.42-8.51C50.88,35,56,29.52,62.08,25.16s13.31-7.54,20.79-7.33a13.89,13.89,0,0,1,5.29,1c3.6,1.61,5.87,5.29,7.05,9.06a21.31,21.31,0,0,1-.06,13.54A15.84,15.84,0,0,1,85.85,51a21.31,21.31,0,0,1-6.3,1,23.14,23.14,0,0,1-7.88-.85,11.62,11.62,0,0,1-6.33-4.57A9.2,9.2,0,0,1,77.74,33.71c1.46,0.85,2.78,2.63,2,4.14a3.11,3.11,0,0,0-1.68-2.7,5.87,5.87,0,0,0-3.25-.58c-3.07.2-6.31,2.22-6.65,5.27-0.31,2.81,2,5.38,4.69,6.25s5.61,0.41,8.35-.24a14.2,14.2,0,0,0,3.66-1.28,10.07,10.07,0,0,0,4.65-6.81A18.84,18.84,0,0,0,89,29.34a9.41,9.41,0,0,0-2.69-5.09,8.94,8.94,0,0,0-5.58-1.65c-7.34-.17-14.4,3-20.43,7.15s-11.28,9.37-17,14C39.85,46.64,35.62,49.45,31.12,48.79Z" style="fill:#6a9c78;"></path><path class="cls-1" d="M41,65a4.76,4.76,0,0,1,3.25.87,2,2,0,0,1,.18,3c0.47-1.18-.6-2.52-1.84-2.78a5.79,5.79,0,0,0-3.64.76,7.52,7.52,0,0,0-3.79,3.21c-1.3,2.75.86,6.18,3.74,7.17s6.06,0.17,8.85-1.05a16.76,16.76,0,0,0,5.53-3.6,8.5,8.5,0,0,0,2.51-6c-0.12-4-3.82-7.09-7.71-7.82s-7.87.44-11.58,1.84A85.78,85.78,0,0,0,24,66.55c-3.2,1.84-6.34,3.92-9.9,4.89s-7.75.61-10.4-2c2.85,1.84,6.64,1.64,9.78.37s5.8-3.47,8.47-5.57c6.46-5.09,13.52-9.86,21.6-11.42a18.67,18.67,0,0,1,6.68-.23A15.09,15.09,0,0,1,60.51,60,12.83,12.83,0,0,1,58.3,76.14a20.79,20.79,0,0,1-9.88,5.37c-4.16,1-8.84,1.05-12.45-1.27s-5.56-7.47-3.35-11.15C34.28,66.3,37.74,65.06,41,65Z" style="fill: #6a9c78;"></path><path class="cls-1" d="M60.56,53.18c1.8-.76,3.94.41,5,2.07a14.32,14.32,0,0,1,1.54,5.61,66.73,66.73,0,0,0,2.15,9.63,10.63,10.63,0,0,0,1.66,3.62c1.82,2.28,5,2.84,7.9,3.17,2.13,0.24,4.45.41,6.28-.71,2.45-1.5,3.15-4.72,3.31-7.59,0.15-2.61,0-5.37-1.3-7.63s-4.14-3.83-6.61-3A5.81,5.81,0,0,0,77.12,62a4.42,4.42,0,0,0,.55,4.5c1.1,1.15,3.48.9,3.87-.65-0.06,1.77-2.32,2.85-4,2.21a5.15,5.15,0,0,1-2.87-4.19,8.63,8.63,0,0,1,4.65-8.78A8.51,8.51,0,0,1,89.08,57a13,13,0,0,1,2.33,4.09,19.72,19.72,0,0,1,1.26,11.49c-0.88,3.81-3.59,7.33-7.34,8.47A14.42,14.42,0,0,1,78.07,81c-4.1-.9-8.36-2.95-10-6.79a16.53,16.53,0,0,1-1-4.8q-0.62-5.5-1.08-11A5.86,5.86,0,0,0,60.56,53.18Z" style="fill: #6a9c78;"></path></g></g><g id="SvgjsG2512" featurekey="UxBHKT-0" transform="matrix(3.725435314964946,0,0,3.725435314964946,98.00791699770365,-17.211510728795815)" fill="#111111"><path d="M4.18 7.369999999999999 q-0.48 0.47 -1.16 0.47 q-0.7 0 -1.19 -0.47 t-0.49 -1.15 q0 -0.66 0.49 -1.13 t1.19 -0.47 q0.68 0 1.16 0.47 t0.48 1.13 q0 0.68 -0.48 1.15 z M1.52 9.02 l3 0 l0 10.98 l-3 0 l0 -10.98 z M16.69 10.02 q1.03 1.22 1.03 3.48 l0 6.5 l-3.06 0 l0 -6.5 q0 -2.22 -2.12 -2.22 q-0.82 0 -1.48 0.65 t-0.62 2.25 l0 5.82 l-2.98 0 l0 -11 l2.98 0 l0 0.98 q0.54 -0.54 1.36 -0.86 t1.58 -0.32 q2.28 0 3.31 1.22 z M20.020000000000003 18.54 l1.56 -2.08 q0.72 0.5 1.68 0.84 t1.88 0.34 q0.68 0 1.13 -0.28 t0.45 -0.7 t-0.51 -0.59 t-0.99 -0.24 t-0.62 -0.09 q-1.2 -0.2 -2.07 -0.48 t-1.58 -1 t-0.71 -1.98 q0 -2.08 1.51 -2.78 t3.03 -0.7 q1.3 0 2.4 0.38 t2.18 1.2 l-1.56 2.04 q-0.78 -0.46 -1.54 -0.74 t-1.58 -0.28 q-0.5 0 -0.97 0.22 t-0.47 0.6 q0 0.48 0.65 0.68 t1.43 0.3 q1.4 0.24 2.24 0.5 t1.49 0.97 t0.65 2.01 q0 1.72 -1.18 2.65 t-3.34 0.93 q-3 0 -5.16 -1.72 z M35.040000000000006 10.1 q0.38 -0.52 1.31 -0.93 t2.03 -0.41 q1.7 0 2.95 0.76 t1.91 2.07 t0.66 2.91 t-0.66 2.91 t-1.91 2.07 t-2.95 0.76 q-1.14 0 -2.01 -0.39 t-1.33 -0.99 l0 4.68 l-2.96 0 l0 -14.54 l2.96 0 l0 1.1 z M35.74 16.75 q0.82 0.87 2.2 0.87 q1.4 0 2.21 -0.87 t0.81 -2.25 q0 -1.34 -0.83 -2.22 t-2.19 -0.88 q-1.4 0 -2.21 0.83 t-0.81 2.27 q0 1.38 0.82 2.25 z M49.14 7.369999999999999 q-0.48 0.47 -1.16 0.47 q-0.7 0 -1.19 -0.47 t-0.49 -1.15 q0 -0.66 0.49 -1.13 t1.19 -0.47 q0.68 0 1.16 0.47 t0.48 1.13 q0 0.68 -0.48 1.15 z M46.480000000000004 9.02 l3 0 l0 10.98 l-3 0 l0 -10.98 z M57.68 11.87 q-0.86 0.21 -1.58 0.99 t-0.72 2.28 l0 4.86 l-2.98 0 l0 -11 l2.98 0 l0 1.46 q0.74 -0.98 1.81 -1.33 t1.95 -0.33 l0 2.92 q-0.6 -0.06 -1.46 0.15 z M63.720000000000006 7.369999999999999 q-0.48 0.47 -1.16 0.47 q-0.7 0 -1.19 -0.47 t-0.49 -1.15 q0 -0.66 0.49 -1.13 t1.19 -0.47 q0.68 0 1.16 0.47 t0.48 1.13 q0 0.68 -0.48 1.15 z M61.06000000000001 9.02 l3 0 l0 10.98 l-3 0 l0 -10.98 z M70.72 16.08 q0 0.7 0.24 1.17 t1.12 0.47 q0.4 0 0.76 -0.04 l0 2.52 q-0.72 0.08 -1.34 0.08 q-1.28 0 -2.07 -0.21 t-1.23 -0.81 t-0.44 -1.72 l0 -6.1 l-1.34 0 l0 -2.62 l1.34 0 l0 -2.94 l2.96 0 l0 2.94 l2.2 0 l0 2.62 l-2.2 0 l0 4.64 z"></path></g></symbol><use xlink:href="#logo-symbol-wordmark"/>
</svg>
